# xmcd
#
# Track frame offsets:
#	150
#	24800
#	49236
#	77209
#	123751
#	141183
#	174359
#
# Disc length: 2669 seconds
#
# Revision: 1
# Processed by: cddbd v1.5.2PL0 Copyright (c) Steve Scherf et al.
# Submitted via: audiograbber 1.83.01
#
DISCID=4f0a6b07
DTITLE=Joe Bonamassa - Live From Nowhere In Particular [CD 1)
DYEAR=2008
DGENRE=Blues Rock
TTITLE0=Bridge To Better Days
TTITLE1=Walk In My Shadows
TTITLE2=So Many Roads
TTITLE3=India/Mountain Time
TTITLE4=Another Kinda Love
TTITLE5=Sloe Gin
TTITLE6=One Of These Days
EXTD=
EXTT0=
EXTT1=
EXTT2=
EXTT3=
EXTT4=
EXTT5=
EXTT6=
PLAYORDER=
